<?xml version="1.0" encoding="utf-8"?>
<!-- Generator: Adobe Illustrator 21.1.0, SVG Export Plug-In . SVG Version: 6.00 Build 0)  -->
<svg version="1.1" id="GoogleLogo_x5F_FullColor_x5F_rgb_21_"
	 xmlns="http://www.w3.org/2000/svg" xmlns:xlink="http://www.w3.org/1999/xlink" x="0px" y="0px" viewBox="0 0 830 270.6"
	 style="enable-background:new 0 0 830 270.6;" xml:space="preserve">
<style type="text/css">
	.st0{fill:#4285F4;}
	.st1{fill:#E94235;}
	.st2{fill:#FABB05;}
	.st3{fill:#34A853;}
</style>
<g id="_x38_30x271px">
	<path class="st0" d="M107,124.5V95.8h96c1,5.1,1.6,11.1,1.6,17.6c0,21.5-5.9,48.1-24.8,67.1c-18.4,19.2-42,29.4-73.2,29.4
		C48.6,209.9,0,162.8,0,105C0,47.1,48.6,0,106.5,0c32,0,54.8,12.5,71.9,28.9l-20.2,20.2c-12.3-11.5-28.9-20.5-51.7-20.5
		c-42.2,0-75.3,34-75.3,76.3s33,76.3,75.3,76.3c27.4,0,43-11,53-21c8.1-8.1,13.5-19.8,15.6-35.8L107,124.5z"/>
	<path class="st1" d="M350.8,142.3c0,38.9-30.5,67.6-67.8,67.6s-67.8-28.7-67.8-67.6c0-39.2,30.5-67.6,67.8-67.6
		C320.4,74.8,350.8,103.2,350.8,142.3z M321.1,142.3c0-24.3-17.7-41-38.1-41c-20.5,0-38.1,16.6-38.1,41c0,24.1,17.7,41,38.1,41
		C303.5,183.3,321.1,166.4,321.1,142.3z"/>
	<path class="st2" d="M498.8,142.3c0,38.9-30.5,67.6-67.8,67.6s-67.8-28.7-67.8-67.6c0-39.2,30.5-67.6,67.8-67.6
		C468.4,74.8,498.8,103.2,498.8,142.3z M469.1,142.3c0-24.3-17.7-41-38.1-41c-20.5,0-38.1,16.6-38.1,41c0,24.1,17.7,41,38.1,41
		C451.5,183.3,469.1,166.4,469.1,142.3z"/>
	<path class="st0" d="M640.7,78.8v121.3c0,49.9-29.4,70.4-64.3,70.4c-32.8,0-52.5-22-59.9-39.9l25.9-10.8c4.6,11,15.9,24.1,34,24.1
		c22.3,0,36.1-13.8,36.1-39.7v-9.7h-1c-6.7,8.2-19.5,15.4-35.6,15.4c-33.8,0-64.8-29.4-64.8-67.3c0-38.2,31-67.8,64.8-67.8
		c16.1,0,28.9,7.2,35.6,15.1h1v-11H640.7z M614.6,142.6c0-23.8-15.9-41.2-36.1-41.2c-20.5,0-37.6,17.4-37.6,41.2
		c0,23.6,17.2,40.7,37.6,40.7C598.7,183.3,614.6,166.1,614.6,142.6z"/>
	<path class="st3" d="M691,7.8v198h-29.7V7.8C661.3,7.8,691,7.8,691,7.8z"/>
	<path class="st1" d="M805.7,164.6l23,15.4c-7.4,11-25.3,29.9-56.3,29.9c-38.4,0-67.1-29.7-67.1-67.6c0-40.2,28.9-67.6,63.8-67.6
		c35.1,0,52.2,27.9,57.9,43l3.1,7.7l-90.4,37.4c6.9,13.6,17.7,20.5,32.8,20.5C787.5,183.3,798,175.9,805.7,164.6z M734.8,140.3
		l60.4-25.1c-3.3-8.4-13.3-14.3-25.1-14.3C755,100.9,734,114.2,734.8,140.3z"/>
</g>
</svg>
